<mxfile host="app.diagrams.net" modified="2022-03-19T01:30:38.287Z" agent="5.0 (Windows NT 10.0; Win64; x64) AppleWebKit/537.36 (KHTML, like Gecko) Chrome/99.0.4844.74 Safari/537.36" etag="hc7NsfO1Jk0gqiznNK2S" version="17.1.3" type="github">
  <diagram id="Gha2nGXSwP6WCTNfwcRW" name="Page-1">
    <mxGraphModel dx="656" dy="321" grid="1" gridSize="10" guides="1" tooltips="1" connect="1" arrows="1" fold="1" page="1" pageScale="1" pageWidth="1169" pageHeight="1654" math="0" shadow="0">
      <root>
        <mxCell id="0" />
        <mxCell id="1" parent="0" />
        <mxCell id="tv6agJ-QRSOsZRgiLXXI-7" value="Inicio" style="strokeWidth=2;html=1;shape=mxgraph.flowchart.start_1;whiteSpace=wrap;hachureGap=4;fontSize=7;" parent="1" vertex="1">
          <mxGeometry x="173.33702882483368" y="80" width="66.74057649667405" height="46.95652173913044" as="geometry" />
        </mxCell>
        <mxCell id="tv6agJ-QRSOsZRgiLXXI-20" style="edgeStyle=none;curved=1;rounded=0;orthogonalLoop=1;jettySize=auto;html=1;exitX=0;exitY=0.5;exitDx=0;exitDy=0;exitPerimeter=0;labelBackgroundColor=none;fontSize=7;endArrow=open;startSize=14;endSize=14;sourcePerimeterSpacing=8;targetPerimeterSpacing=8;" parent="1" source="tv6agJ-QRSOsZRgiLXXI-10" edge="1">
          <mxGeometry relative="1" as="geometry">
            <mxPoint x="196.02882483370286" y="205.2173913043478" as="targetPoint" />
          </mxGeometry>
        </mxCell>
        <mxCell id="tv6agJ-QRSOsZRgiLXXI-10" value="&lt;font style=&quot;font-size: 7px;&quot;&gt;Ola, por favor insira a data do evento.&lt;/font&gt;" style="strokeWidth=2;html=1;shape=mxgraph.flowchart.display;whiteSpace=wrap;hachureGap=4;direction=east;fontSize=7;" parent="1" vertex="1">
          <mxGeometry x="173.33702882483368" y="181.73913043478262" width="66.74057649667405" height="46.95652173913044" as="geometry" />
        </mxCell>
        <mxCell id="tv6agJ-QRSOsZRgiLXXI-21" value="" style="edgeStyle=none;curved=1;rounded=0;orthogonalLoop=1;jettySize=auto;html=1;labelBackgroundColor=none;fontSize=7;endArrow=open;startSize=14;endSize=14;sourcePerimeterSpacing=8;targetPerimeterSpacing=8;" parent="1" source="tv6agJ-QRSOsZRgiLXXI-7" target="tv6agJ-QRSOsZRgiLXXI-10" edge="1">
          <mxGeometry relative="1" as="geometry" />
        </mxCell>
        <mxCell id="tv6agJ-QRSOsZRgiLXXI-12" value="&lt;br&gt;data_do_evento&amp;nbsp;" style="html=1;strokeWidth=2;shape=manualInput;whiteSpace=wrap;rounded=1;size=26;arcSize=11;hachureGap=4;fontSize=7;" parent="1" vertex="1">
          <mxGeometry x="173.33702882483368" y="283.47826086956525" width="73.41463414634146" height="46.95652173913044" as="geometry" />
        </mxCell>
        <mxCell id="tv6agJ-QRSOsZRgiLXXI-22" value="" style="edgeStyle=none;curved=1;rounded=0;orthogonalLoop=1;jettySize=auto;html=1;labelBackgroundColor=none;fontSize=7;endArrow=open;startSize=14;endSize=14;sourcePerimeterSpacing=8;targetPerimeterSpacing=8;" parent="1" source="tv6agJ-QRSOsZRgiLXXI-10" target="tv6agJ-QRSOsZRgiLXXI-12" edge="1">
          <mxGeometry relative="1" as="geometry" />
        </mxCell>
        <mxCell id="tv6agJ-QRSOsZRgiLXXI-23" value="&lt;span id=&quot;yui_3_17_2_1_1647642257551_85&quot; style=&quot;box-sizing: border-box; font-weight: 700; font-family: roboto, sans-serif; text-align: left; background-color: rgb(255, 255, 255); font-size: 7px;&quot;&gt;&lt;font style=&quot;font-size: 7px;&quot;&gt;A data_do_evento é posterior a data_atual ?&lt;br style=&quot;font-size: 7px;&quot;&gt;&lt;br style=&quot;font-size: 7px;&quot;&gt;&lt;/font&gt;&lt;/span&gt;" style="strokeWidth=2;html=1;shape=mxgraph.flowchart.decision;whiteSpace=wrap;hachureGap=4;fontSize=7;" parent="1" vertex="1">
          <mxGeometry x="170" y="385.2173913043478" width="80.08869179600886" height="86.08695652173914" as="geometry" />
        </mxCell>
        <mxCell id="tv6agJ-QRSOsZRgiLXXI-25" value="" style="edgeStyle=none;curved=1;rounded=0;orthogonalLoop=1;jettySize=auto;html=1;labelBackgroundColor=none;fontSize=7;endArrow=open;startSize=14;endSize=14;sourcePerimeterSpacing=8;targetPerimeterSpacing=8;" parent="1" source="tv6agJ-QRSOsZRgiLXXI-12" target="tv6agJ-QRSOsZRgiLXXI-23" edge="1">
          <mxGeometry relative="1" as="geometry" />
        </mxCell>
        <mxCell id="tv6agJ-QRSOsZRgiLXXI-32" value="&lt;span id=&quot;yui_3_17_2_1_1647642257551_85&quot; style=&quot;box-sizing: border-box; font-weight: 700; font-family: roboto, sans-serif; text-align: left; background-color: rgb(255, 255, 255); font-size: 7px;&quot;&gt;&lt;font style=&quot;font-size: 7px;&quot;&gt;&amp;nbsp;O cadastro não será permitido por data inválida.&lt;/font&gt;&lt;/span&gt;" style="strokeWidth=2;html=1;shape=mxgraph.flowchart.display;whiteSpace=wrap;hachureGap=4;fontSize=7;" parent="1" vertex="1">
          <mxGeometry x="319.99855875831486" y="404.7826086956522" width="66.74057649667405" height="46.95652173913044" as="geometry" />
        </mxCell>
        <mxCell id="tv6agJ-QRSOsZRgiLXXI-33" value="" style="edgeStyle=none;curved=1;rounded=0;orthogonalLoop=1;jettySize=auto;html=1;labelBackgroundColor=none;fontSize=7;endArrow=open;startSize=14;endSize=14;sourcePerimeterSpacing=8;targetPerimeterSpacing=8;labelPosition=center;verticalLabelPosition=top;align=center;verticalAlign=bottom;" parent="1" source="tv6agJ-QRSOsZRgiLXXI-23" target="tv6agJ-QRSOsZRgiLXXI-32" edge="1">
          <mxGeometry relative="1" as="geometry">
            <Array as="points">
              <mxPoint x="270.7782705099778" y="428.26086956521743" />
            </Array>
          </mxGeometry>
        </mxCell>
        <mxCell id="tv6agJ-QRSOsZRgiLXXI-38" value="Não&amp;nbsp;" style="edgeLabel;html=1;align=center;verticalAlign=bottom;resizable=0;points=[];fontSize=7;labelPosition=center;verticalLabelPosition=top;" parent="tv6agJ-QRSOsZRgiLXXI-33" vertex="1" connectable="0">
          <mxGeometry x="-0.4183" y="2" relative="1" as="geometry">
            <mxPoint as="offset" />
          </mxGeometry>
        </mxCell>
        <mxCell id="tv6agJ-QRSOsZRgiLXXI-36" value="Ir para inicio" style="strokeWidth=2;html=1;shape=mxgraph.flowchart.start_2;whiteSpace=wrap;hachureGap=4;fontSize=7;" parent="1" vertex="1">
          <mxGeometry x="449.9975388026608" y="398.9130434782609" width="53.392461197339244" height="58.69565217391305" as="geometry" />
        </mxCell>
        <mxCell id="tv6agJ-QRSOsZRgiLXXI-37" value="" style="edgeStyle=none;curved=1;rounded=0;orthogonalLoop=1;jettySize=auto;html=1;labelBackgroundColor=none;fontSize=7;endArrow=open;startSize=14;endSize=14;sourcePerimeterSpacing=8;targetPerimeterSpacing=8;" parent="1" source="tv6agJ-QRSOsZRgiLXXI-32" target="tv6agJ-QRSOsZRgiLXXI-36" edge="1">
          <mxGeometry relative="1" as="geometry" />
        </mxCell>
        <mxCell id="tv6agJ-QRSOsZRgiLXXI-39" value="Por favor insira sua idade." style="strokeWidth=2;html=1;shape=mxgraph.flowchart.display;whiteSpace=wrap;hachureGap=4;fontSize=7;" parent="1" vertex="1">
          <mxGeometry x="176.67405764966742" y="533.9130434782609" width="66.74057649667405" height="46.95652173913044" as="geometry" />
        </mxCell>
        <mxCell id="tv6agJ-QRSOsZRgiLXXI-40" value="sim&amp;nbsp;" style="edgeStyle=none;curved=1;rounded=0;orthogonalLoop=1;jettySize=auto;html=1;labelBackgroundColor=none;fontSize=7;endArrow=open;startSize=14;endSize=14;sourcePerimeterSpacing=8;targetPerimeterSpacing=8;labelPosition=right;verticalLabelPosition=middle;align=left;verticalAlign=middle;" parent="1" source="tv6agJ-QRSOsZRgiLXXI-23" target="tv6agJ-QRSOsZRgiLXXI-39" edge="1">
          <mxGeometry relative="1" as="geometry" />
        </mxCell>
        <mxCell id="tv6agJ-QRSOsZRgiLXXI-41" value="Idade" style="html=1;strokeWidth=2;shape=manualInput;whiteSpace=wrap;rounded=1;size=26;arcSize=11;hachureGap=4;fontSize=7;" parent="1" vertex="1">
          <mxGeometry x="176.67405764966742" y="627.8260869565217" width="66.74057649667405" height="46.95652173913044" as="geometry" />
        </mxCell>
        <mxCell id="tv6agJ-QRSOsZRgiLXXI-42" value="" style="edgeStyle=none;curved=1;rounded=0;orthogonalLoop=1;jettySize=auto;html=1;labelBackgroundColor=none;fontSize=7;endArrow=open;startSize=14;endSize=14;sourcePerimeterSpacing=8;targetPerimeterSpacing=8;" parent="1" source="tv6agJ-QRSOsZRgiLXXI-39" target="tv6agJ-QRSOsZRgiLXXI-41" edge="1">
          <mxGeometry relative="1" as="geometry" />
        </mxCell>
        <mxCell id="pprvhLmdQRu72lxRvswo-3" value="sim" style="edgeStyle=none;curved=1;rounded=0;orthogonalLoop=1;jettySize=auto;html=1;labelBackgroundColor=none;fontSize=7;endArrow=open;startSize=14;endSize=14;sourcePerimeterSpacing=8;targetPerimeterSpacing=8;entryX=0.5;entryY=0;entryDx=0;entryDy=0;entryPerimeter=0;labelPosition=right;verticalLabelPosition=middle;align=left;verticalAlign=middle;" edge="1" parent="1" source="tv6agJ-QRSOsZRgiLXXI-43">
          <mxGeometry relative="1" as="geometry">
            <mxPoint x="210.03999999999996" y="860.0000000000002" as="targetPoint" />
            <Array as="points">
              <mxPoint x="210" y="810" />
            </Array>
          </mxGeometry>
        </mxCell>
        <mxCell id="tv6agJ-QRSOsZRgiLXXI-43" value="&lt;span id=&quot;yui_3_17_2_1_1647642257551_98&quot; style=&quot;box-sizing: border-box ; font-weight: 700 ; font-family: &amp;#34;roboto&amp;#34; , sans-serif ; text-align: left ; background-color: rgb(255 , 255 , 255) ; font-size: 7px&quot;&gt;A idade do&lt;br style=&quot;font-size: 7px&quot;&gt;&amp;nbsp;participante é&lt;br style=&quot;font-size: 7px&quot;&gt;&amp;nbsp;maior de 18 anos?&lt;br style=&quot;font-size: 7px&quot;&gt;&lt;br style=&quot;font-size: 7px&quot;&gt;&lt;/span&gt;" style="strokeWidth=2;html=1;shape=mxgraph.flowchart.decision;whiteSpace=wrap;hachureGap=4;fontSize=7;" parent="1" vertex="1">
          <mxGeometry x="176.67405764966742" y="721.7391304347826" width="66.74057649667405" height="78.26086956521739" as="geometry" />
        </mxCell>
        <mxCell id="tv6agJ-QRSOsZRgiLXXI-44" value="" style="edgeStyle=none;curved=1;rounded=0;orthogonalLoop=1;jettySize=auto;html=1;labelBackgroundColor=none;fontSize=7;endArrow=open;startSize=14;endSize=14;sourcePerimeterSpacing=8;targetPerimeterSpacing=8;" parent="1" source="tv6agJ-QRSOsZRgiLXXI-41" target="tv6agJ-QRSOsZRgiLXXI-43" edge="1">
          <mxGeometry relative="1" as="geometry" />
        </mxCell>
        <mxCell id="tv6agJ-QRSOsZRgiLXXI-83" value="" style="edgeStyle=none;curved=1;rounded=0;orthogonalLoop=1;jettySize=auto;html=1;labelBackgroundColor=none;fontSize=7;endArrow=open;startSize=14;endSize=14;sourcePerimeterSpacing=8;targetPerimeterSpacing=8;" parent="1" source="tv6agJ-QRSOsZRgiLXXI-45" target="tv6agJ-QRSOsZRgiLXXI-50" edge="1">
          <mxGeometry relative="1" as="geometry" />
        </mxCell>
        <mxCell id="tv6agJ-QRSOsZRgiLXXI-45" value="&lt;span id=&quot;yui_3_17_2_1_1647642257551_98&quot; style=&quot;box-sizing: border-box; font-weight: 700; font-family: roboto, sans-serif; text-align: left; background-color: rgb(255, 255, 255); font-size: 7px;&quot;&gt;&amp;nbsp;O cadastro não será permitido pela idade&lt;font style=&quot;font-size: 7px;&quot;&gt;.&lt;/font&gt;&lt;/span&gt;" style="strokeWidth=2;html=1;shape=mxgraph.flowchart.display;whiteSpace=wrap;hachureGap=4;fontSize=7;" parent="1" vertex="1">
          <mxGeometry x="319.99638580931264" y="737.3913043478261" width="66.74057649667405" height="46.95652173913044" as="geometry" />
        </mxCell>
        <mxCell id="tv6agJ-QRSOsZRgiLXXI-46" value="Não&lt;br style=&quot;font-size: 7px;&quot;&gt;" style="edgeStyle=none;curved=1;rounded=0;orthogonalLoop=1;jettySize=auto;html=1;labelBackgroundColor=none;fontSize=7;endArrow=open;startSize=14;endSize=14;sourcePerimeterSpacing=8;targetPerimeterSpacing=8;labelPosition=center;verticalLabelPosition=top;align=center;verticalAlign=bottom;" parent="1" source="tv6agJ-QRSOsZRgiLXXI-43" target="tv6agJ-QRSOsZRgiLXXI-45" edge="1">
          <mxGeometry x="-0.4222" y="10" relative="1" as="geometry">
            <mxPoint as="offset" />
          </mxGeometry>
        </mxCell>
        <mxCell id="tv6agJ-QRSOsZRgiLXXI-50" value="Ir para inicio" style="strokeWidth=2;html=1;shape=mxgraph.flowchart.start_2;whiteSpace=wrap;hachureGap=4;fontSize=7;" parent="1" vertex="1">
          <mxGeometry x="449.9953658536585" y="731.5217391304349" width="53.392461197339244" height="58.69565217391305" as="geometry" />
        </mxCell>
        <mxCell id="pprvhLmdQRu72lxRvswo-6" value="" style="edgeStyle=none;curved=1;rounded=0;orthogonalLoop=1;jettySize=auto;html=1;labelBackgroundColor=none;fontSize=7;endArrow=open;startSize=14;endSize=14;sourcePerimeterSpacing=8;targetPerimeterSpacing=8;" edge="1" parent="1" source="pprvhLmdQRu72lxRvswo-4" target="pprvhLmdQRu72lxRvswo-5">
          <mxGeometry relative="1" as="geometry" />
        </mxCell>
        <mxCell id="pprvhLmdQRu72lxRvswo-4" value="Por favor, digita seu nome." style="strokeWidth=2;html=1;shape=mxgraph.flowchart.display;whiteSpace=wrap;hachureGap=4;fontSize=7;" vertex="1" parent="1">
          <mxGeometry x="160.04000000000002" y="860" width="100" height="60" as="geometry" />
        </mxCell>
        <mxCell id="pprvhLmdQRu72lxRvswo-11" value="" style="edgeStyle=none;curved=1;rounded=0;orthogonalLoop=1;jettySize=auto;html=1;labelBackgroundColor=none;fontSize=7;endArrow=open;startSize=14;endSize=14;sourcePerimeterSpacing=8;targetPerimeterSpacing=8;" edge="1" parent="1" source="pprvhLmdQRu72lxRvswo-5" target="pprvhLmdQRu72lxRvswo-10">
          <mxGeometry relative="1" as="geometry" />
        </mxCell>
        <mxCell id="pprvhLmdQRu72lxRvswo-5" value="Nome _do_participante&amp;nbsp;" style="html=1;strokeWidth=2;shape=manualInput;whiteSpace=wrap;rounded=1;size=26;arcSize=11;hachureGap=4;fontSize=7;" vertex="1" parent="1">
          <mxGeometry x="160" y="970" width="100" height="60" as="geometry" />
        </mxCell>
        <mxCell id="pprvhLmdQRu72lxRvswo-13" value="" style="edgeStyle=none;curved=1;rounded=0;orthogonalLoop=1;jettySize=auto;html=1;labelBackgroundColor=none;fontSize=7;endArrow=open;startSize=14;endSize=14;sourcePerimeterSpacing=8;targetPerimeterSpacing=8;" edge="1" parent="1" source="pprvhLmdQRu72lxRvswo-10" target="pprvhLmdQRu72lxRvswo-12">
          <mxGeometry relative="1" as="geometry" />
        </mxCell>
        <mxCell id="pprvhLmdQRu72lxRvswo-10" value="Criar lista _de_participantes&lt;br&gt;Contar numero_de_participantes" style="rounded=1;whiteSpace=wrap;html=1;absoluteArcSize=1;arcSize=14;strokeWidth=2;hachureGap=4;fontSize=7;" vertex="1" parent="1">
          <mxGeometry x="146.73" y="1110" width="126.62" height="50" as="geometry" />
        </mxCell>
        <mxCell id="pprvhLmdQRu72lxRvswo-15" value="Não&lt;br&gt;" style="edgeStyle=none;curved=1;rounded=0;orthogonalLoop=1;jettySize=auto;html=1;labelBackgroundColor=none;fontSize=10;endArrow=open;startSize=14;endSize=14;sourcePerimeterSpacing=8;targetPerimeterSpacing=8;labelPosition=center;verticalLabelPosition=top;align=center;verticalAlign=bottom;" edge="1" parent="1" source="pprvhLmdQRu72lxRvswo-12" target="pprvhLmdQRu72lxRvswo-14">
          <mxGeometry x="-0.777" y="10" relative="1" as="geometry">
            <mxPoint as="offset" />
          </mxGeometry>
        </mxCell>
        <mxCell id="pprvhLmdQRu72lxRvswo-21" value="" style="edgeStyle=none;curved=1;rounded=0;orthogonalLoop=1;jettySize=auto;html=1;labelBackgroundColor=none;fontSize=10;endArrow=open;startSize=14;endSize=14;sourcePerimeterSpacing=8;targetPerimeterSpacing=8;" edge="1" parent="1" source="pprvhLmdQRu72lxRvswo-12" target="pprvhLmdQRu72lxRvswo-18">
          <mxGeometry relative="1" as="geometry" />
        </mxCell>
        <mxCell id="pprvhLmdQRu72lxRvswo-12" value="&lt;span id=&quot;yui_3_17_2_1_1647642257551_98&quot; style=&quot;box-sizing: border-box ; font-weight: 700 ; font-family: &amp;#34;roboto&amp;#34; , sans-serif ; text-align: left ; background-color: rgb(255 , 255 , 255)&quot;&gt;&lt;span style=&quot;box-sizing: border-box ; font-family: &amp;#34;roboto&amp;#34; , sans-serif&quot;&gt;&lt;font style=&quot;font-size: 10px&quot;&gt;O número&lt;/font&gt;&lt;font style=&quot;font-size: 10px&quot;&gt; de participantes é &lt;br&gt;inferior a 100?&lt;/font&gt;&lt;/span&gt;&lt;br style=&quot;font-size: 7px&quot;&gt;&lt;/span&gt;" style="strokeWidth=2;html=1;shape=mxgraph.flowchart.decision;whiteSpace=wrap;hachureGap=4;fontSize=7;" vertex="1" parent="1">
          <mxGeometry x="153.35999999999999" y="1240" width="113.37" height="120" as="geometry" />
        </mxCell>
        <mxCell id="pprvhLmdQRu72lxRvswo-17" value="" style="edgeStyle=none;curved=1;rounded=0;orthogonalLoop=1;jettySize=auto;html=1;labelBackgroundColor=none;fontSize=10;endArrow=open;startSize=14;endSize=14;sourcePerimeterSpacing=8;targetPerimeterSpacing=8;" edge="1" parent="1" source="pprvhLmdQRu72lxRvswo-14" target="pprvhLmdQRu72lxRvswo-16">
          <mxGeometry relative="1" as="geometry" />
        </mxCell>
        <mxCell id="pprvhLmdQRu72lxRvswo-14" value="&lt;span id=&quot;yui_3_17_2_1_1647642257551_96&quot; style=&quot;box-sizing: border-box; font-weight: 700; font-family: roboto, sans-serif; text-align: left; background-color: rgb(255, 255, 255); font-size: 9px;&quot;&gt;&amp;nbsp;O&lt;/span&gt;&lt;span style=&quot;font-weight: 700; background-color: rgb(255, 255, 255); font-family: roboto, sans-serif; text-align: left; font-size: 9px;&quot;&gt;&amp;nbsp;cadastro não será permitido por ter excedido o limite.&lt;br style=&quot;font-size: 9px;&quot;&gt;&lt;br style=&quot;font-size: 9px;&quot;&gt;&lt;/span&gt;" style="strokeWidth=2;html=1;shape=mxgraph.flowchart.display;whiteSpace=wrap;hachureGap=4;fontSize=9;" vertex="1" parent="1">
          <mxGeometry x="340" y="1270" width="100" height="60" as="geometry" />
        </mxCell>
        <mxCell id="pprvhLmdQRu72lxRvswo-16" value="Fim." style="strokeWidth=2;html=1;shape=mxgraph.flowchart.start_2;whiteSpace=wrap;hachureGap=4;fontSize=10;" vertex="1" parent="1">
          <mxGeometry x="503.39" y="1250" width="100" height="100" as="geometry" />
        </mxCell>
        <mxCell id="pprvhLmdQRu72lxRvswo-24" value="" style="edgeStyle=none;curved=1;rounded=0;orthogonalLoop=1;jettySize=auto;html=1;labelBackgroundColor=none;fontSize=10;endArrow=open;startSize=14;endSize=14;sourcePerimeterSpacing=8;targetPerimeterSpacing=8;" edge="1" parent="1" source="pprvhLmdQRu72lxRvswo-18" target="pprvhLmdQRu72lxRvswo-23">
          <mxGeometry relative="1" as="geometry" />
        </mxCell>
        <mxCell id="pprvhLmdQRu72lxRvswo-18" value="Cadastro finalizado." style="strokeWidth=2;html=1;shape=mxgraph.flowchart.display;whiteSpace=wrap;hachureGap=4;fontSize=10;" vertex="1" parent="1">
          <mxGeometry x="160.04" y="1430" width="100" height="60" as="geometry" />
        </mxCell>
        <mxCell id="pprvhLmdQRu72lxRvswo-23" value="Voltar ao inicio." style="strokeWidth=2;html=1;shape=mxgraph.flowchart.terminator;whiteSpace=wrap;hachureGap=4;fontSize=10;" vertex="1" parent="1">
          <mxGeometry x="160.09" y="1550" width="99.95" height="90" as="geometry" />
        </mxCell>
      </root>
    </mxGraphModel>
  </diagram>
</mxfile>
